<svg width="24" height="24" viewBox="0 0 24 24" fill="none" xmlns="http://www.w3.org/2000/svg">
<path d="M12.375 7.875C11.485 7.875 10.615 8.13892 9.87493 8.63339C9.13491 9.12785 8.55814 9.83066 8.21754 10.6529C7.87695 11.4752 7.78783 12.38 7.96147 13.2529C8.1351 14.1258 8.56368 14.9276 9.19302 15.557C9.82236 16.1863 10.6242 16.6149 11.4971 16.7885C12.37 16.9622 13.2748 16.8731 14.0971 16.5325C14.9193 16.1919 15.6221 15.6151 16.1166 14.8751C16.6111 14.135 16.875 13.265 16.875 12.375C16.875 11.1815 16.4009 10.0369 15.557 9.19302C14.7131 8.34911 13.5685 7.875 12.375 7.875ZM12.375 15.375C11.7817 15.375 11.2016 15.1991 10.7083 14.8694C10.2149 14.5398 9.83042 14.0712 9.60336 13.5231C9.3763 12.9749 9.31689 12.3717 9.43264 11.7897C9.5484 11.2078 9.83412 10.6732 10.2537 10.2537C10.6732 9.83412 11.2078 9.5484 11.7897 9.43264C12.3717 9.31689 12.9749 9.3763 13.5231 9.60336C14.0712 9.83042 14.5398 10.2149 14.8694 10.7083C15.1991 11.2016 15.375 11.7817 15.375 12.375C15.3725 13.1699 15.0557 13.9315 14.4936 14.4936C13.9315 15.0557 13.1699 15.3725 12.375 15.375ZM16.5 3H8.25C6.85761 3 5.52226 3.55312 4.53769 4.53769C3.55312 5.52226 3 6.85761 3 8.25V16.5C3 17.8924 3.55312 19.2277 4.53769 20.2123C5.52226 21.1969 6.85761 21.75 8.25 21.75H16.5C17.8924 21.75 19.2277 21.1969 20.2123 20.2123C21.1969 19.2277 21.75 17.8924 21.75 16.5V8.25C21.75 6.85761 21.1969 5.52226 20.2123 4.53769C19.2277 3.55312 17.8924 3 16.5 3ZM20.25 16.5C20.25 16.9925 20.153 17.4801 19.9645 17.9351C19.7761 18.39 19.4999 18.8034 19.1516 19.1516C18.8034 19.4999 18.39 19.7761 17.9351 19.9645C17.4801 20.153 16.9925 20.25 16.5 20.25H8.25C7.75754 20.25 7.26991 20.153 6.81494 19.9645C6.35997 19.7761 5.94657 19.4999 5.59835 19.1516C5.25013 18.8034 4.97391 18.39 4.78545 17.9351C4.597 17.4801 4.5 16.9925 4.5 16.5V8.25C4.5 7.25544 4.89509 6.30161 5.59835 5.59835C6.30161 4.89509 7.25544 4.5 8.25 4.5H16.5C16.9925 4.5 17.4801 4.597 17.9351 4.78545C18.39 4.97391 18.8034 5.25013 19.1516 5.59835C19.4999 5.94657 19.7761 6.35997 19.9645 6.81494C20.153 7.26991 20.25 7.75754 20.25 8.25V16.5ZM18.375 7.5C18.375 7.7225 18.309 7.94001 18.1854 8.12502C18.0618 8.31002 17.8861 8.45422 17.6805 8.53936C17.475 8.62451 17.2488 8.64679 17.0305 8.60338C16.8123 8.55998 16.6118 8.45283 16.4545 8.2955C16.2972 8.13816 16.19 7.93771 16.1466 7.71948C16.1032 7.50125 16.1255 7.27505 16.2106 7.06948C16.2958 6.86391 16.44 6.68821 16.625 6.5646C16.81 6.44098 17.0275 6.375 17.25 6.375C17.5484 6.375 17.8345 6.49353 18.0455 6.7045C18.2565 6.91548 18.375 7.20163 18.375 7.5Z" fill="#F17559"/>
</svg>
