<svg width="36" height="32" viewBox="0 0 36 32" fill="none" xmlns="http://www.w3.org/2000/svg">
<path d="M10 22C9.71667 22 9.47933 21.904 9.288 21.712C9.096 21.5207 9 21.2833 9 21C9 20.7167 9.096 20.4793 9.288 20.288C9.47933 20.096 9.71667 20 10 20H26C26.2833 20 26.5207 20.096 26.712 20.288C26.904 20.4793 27 20.7167 27 21C27 21.2833 26.904 21.5207 26.712 21.712C26.5207 21.904 26.2833 22 26 22H10ZM10 17C9.71667 17 9.47933 16.904 9.288 16.712C9.096 16.5207 9 16.2833 9 16C9 15.7167 9.096 15.479 9.288 15.287C9.47933 15.0957 9.71667 15 10 15H26C26.2833 15 26.5207 15.0957 26.712 15.287C26.904 15.479 27 15.7167 27 16C27 16.2833 26.904 16.5207 26.712 16.712C26.5207 16.904 26.2833 17 26 17H10ZM10 12C9.71667 12 9.47933 11.9043 9.288 11.713C9.096 11.521 9 11.2833 9 11C9 10.7167 9.096 10.479 9.288 10.287C9.47933 10.0957 9.71667 10 10 10H26C26.2833 10 26.5207 10.0957 26.712 10.287C26.904 10.479 27 10.7167 27 11C27 11.2833 26.904 11.521 26.712 11.713C26.5207 11.9043 26.2833 12 26 12H10Z" fill="#383747"/>
</svg>
