<svg width="20" height="20" viewBox="0 0 20 20" fill="none" xmlns="http://www.w3.org/2000/svg">
<path d="M19.45 0.564847C19.3112 0.425792 19.1464 0.315471 18.9649 0.240198C18.7834 0.164926 18.5889 0.126181 18.3925 0.126181C18.196 0.126181 18.0015 0.164926 17.82 0.240198C17.6386 0.315471 17.4737 0.425792 17.335 0.564847L9.99997 7.88485L2.66497 0.549847C2.5261 0.410974 2.36123 0.300814 2.17978 0.225657C1.99834 0.150499 1.80387 0.111816 1.60747 0.111816C1.41107 0.111816 1.2166 0.150499 1.03515 0.225657C0.853708 0.300814 0.688842 0.410974 0.549969 0.549847C0.411096 0.68872 0.300936 0.853586 0.225779 1.03503C0.150621 1.21648 0.111938 1.41095 0.111938 1.60735C0.111938 1.80374 0.150621 1.99822 0.225779 2.17966C0.300936 2.36111 0.411096 2.52597 0.549969 2.66485L7.88497 9.99985L0.549969 17.3348C0.411096 17.4737 0.300936 17.6386 0.225779 17.82C0.150621 18.0015 0.111938 18.1959 0.111938 18.3923C0.111938 18.5887 0.150621 18.7832 0.225779 18.9647C0.300936 19.1461 0.411096 19.311 0.549969 19.4498C0.688842 19.5887 0.853708 19.6989 1.03515 19.774C1.2166 19.8492 1.41107 19.8879 1.60747 19.8879C1.80387 19.8879 1.99834 19.8492 2.17978 19.774C2.36123 19.6989 2.5261 19.5887 2.66497 19.4498L9.99997 12.1148L17.335 19.4498C17.4738 19.5887 17.6387 19.6989 17.8202 19.774C18.0016 19.8492 18.1961 19.8879 18.3925 19.8879C18.5889 19.8879 18.7833 19.8492 18.9648 19.774C19.1462 19.6989 19.3111 19.5887 19.45 19.4498C19.5888 19.311 19.699 19.1461 19.7742 18.9647C19.8493 18.7832 19.888 18.5887 19.888 18.3923C19.888 18.1959 19.8493 18.0015 19.7742 17.82C19.699 17.6386 19.5888 17.4737 19.45 17.3348L12.115 9.99985L19.45 2.66485C20.02 2.09485 20.02 1.13485 19.45 0.564847Z" fill="black"/>
</svg>
