<svg width="180" height="180" viewBox="0 0 180 180" fill="none" xmlns="http://www.w3.org/2000/svg">
<circle cx="90" cy="90.0005" r="90" fill="#FBECC3"/>
<path d="M40.752 130.752V131.648H55.248V130.752H40.752ZM41.216 121.872V122.736H54.592V121.872H41.216ZM50.336 129.696V134.048C50.336 134.256 50.272 134.32 50 134.336C49.744 134.352 48.848 134.352 47.84 134.32C47.984 134.592 48.144 134.992 48.192 135.248C49.488 135.248 50.288 135.264 50.768 135.104C51.248 134.96 51.376 134.656 51.376 134.08V129.696H50.336ZM47.44 120.624V129.2H48.496V120.624H47.44ZM43.296 132.336C44.272 132.928 45.424 133.808 45.968 134.448L46.752 133.728C46.176 133.104 44.992 132.256 44.048 131.712L43.296 132.336ZM43.456 126.224H52.56V127.296H43.456V126.224ZM43.456 124.464H52.56V125.504H43.456V124.464ZM42.448 123.712V128.048H53.616V123.712H42.448ZM50.384 128.4C51.68 128.8 53.216 129.632 54 130.272L54.64 129.648C53.84 129.04 52.288 128.24 51.008 127.824L50.384 128.4ZM41.376 129.024L41.424 129.888C44.448 129.84 48.976 129.744 53.248 129.632L53.296 128.896C48.928 128.976 44.272 129.024 41.376 129.024ZM63.728 120.656C63.68 123.072 63.744 131.008 57.04 134.352C57.36 134.576 57.712 134.928 57.904 135.2C64.72 131.616 64.848 123.408 64.912 120.656H63.728ZM64.768 122.64L63.744 122.736C63.968 124.096 64.656 132.208 70.944 135.136C71.104 134.848 71.424 134.464 71.728 134.24C65.6 131.504 64.912 123.744 64.768 122.64ZM83.168 121.424V122.368H86.144V121.424H83.168ZM79.44 122.256V123.184H82.544V122.256H79.44ZM83.312 124.512V125.424H86.08V124.512H83.312ZM83.232 127.536V128.448H85.952V127.536H83.232ZM75.312 124.448V125.376H78.032V124.448H75.312ZM75.408 127.456V128.368H78.08V127.456H75.408ZM85.568 121.424C85.568 124.352 85.44 128.544 85.264 130.88H86.288C86.432 128.576 86.544 124.416 86.56 121.424H85.568ZM77.696 120.688C76.944 121.088 75.728 121.568 74.736 121.92C74.848 122.16 74.976 122.48 75.024 122.704C76.048 122.4 77.28 121.984 78.24 121.568L77.696 120.688ZM78.928 120.704V125.872H82.048V124.992H79.872V120.704H78.928ZM73.408 130.48V131.472H87.888V130.48H73.408ZM82.224 132.48C83.92 133.328 85.696 134.4 86.8 135.184L87.504 134.384C86.368 133.584 84.528 132.56 82.816 131.744L82.224 132.48ZM78.112 131.792C77.104 132.688 75.168 133.776 73.632 134.416C73.84 134.64 74.128 135.008 74.272 135.232C75.84 134.528 77.76 133.456 79.056 132.432L78.112 131.792ZM74.736 121.92L75.056 130.832H76.032L75.744 122.208L74.736 121.92ZM79.488 126.624C79.328 127.632 79.072 128.624 78.56 129.344C78.768 129.44 79.152 129.68 79.312 129.808C79.808 129.04 80.16 127.904 80.352 126.768L79.488 126.624ZM81.52 125.008V129.296C81.52 129.44 81.472 129.488 81.312 129.488C81.136 129.504 80.656 129.504 80.048 129.488C80.176 129.696 80.288 130 80.336 130.24C81.12 130.24 81.68 130.24 82.016 130.096C82.352 129.968 82.448 129.744 82.448 129.296V125.008H81.52ZM96.48 120.624C95.936 122.16 94.976 123.648 93.872 124.608C94.112 124.768 94.528 125.104 94.688 125.296C95.808 124.208 96.864 122.576 97.488 120.864L96.48 120.624ZM96.464 124.992C96.032 126.144 95.296 127.264 94.448 128.048C94.688 128.192 95.088 128.496 95.264 128.656C96.096 127.824 96.944 126.544 97.472 125.264L96.464 124.992ZM96.208 122.144L95.84 123.072H103.264V122.144H96.208ZM100.88 125.376C101.68 126.384 102.512 127.76 102.864 128.672L103.792 128.176C103.424 127.296 102.576 125.952 101.744 124.96L100.88 125.376ZM102.944 122.144V122.288C102.624 123.088 102.176 124.096 101.792 124.72L102.72 124.912C103.12 124.272 103.616 123.2 104.032 122.288L103.296 122.096L103.12 122.144H102.944ZM93.392 120.56C92.48 122.352 91.024 124.144 89.536 125.296C89.76 125.488 90.128 125.92 90.272 126.112C91.776 124.832 93.344 122.864 94.368 120.88L93.392 120.56ZM91.888 123.52V129.696H92.928V122.528L92.912 122.512L91.888 123.52ZM93.184 130.576V133.424C93.184 134.656 93.664 134.96 95.504 134.96C95.888 134.96 99.072 134.96 99.472 134.96C101.024 134.96 101.376 134.48 101.52 132.48C101.232 132.416 100.784 132.256 100.528 132.08C100.448 133.728 100.304 133.952 99.408 133.952C98.72 133.952 96.048 133.952 95.536 133.952C94.448 133.952 94.24 133.872 94.24 133.408V130.576H93.184ZM95.584 129.824C96.48 130.688 97.472 131.904 97.904 132.688L98.8 132.144C98.336 131.36 97.312 130.176 96.416 129.376L95.584 129.824ZM101.296 130.784C102.032 131.92 102.768 133.456 103.008 134.432L104.032 134.016C103.776 133.04 103.008 131.552 102.256 130.416L101.296 130.784ZM91.408 130.688C91.04 131.728 90.416 133.2 89.76 134.144L90.768 134.624C91.376 133.632 91.952 132.128 92.352 131.088L91.408 130.688ZM98.864 123.728V129.648H99.888V123.728H98.864ZM106.048 121.296V122.272H111.344V121.296H106.048ZM107.504 124.64V125.552H110.304V124.64H107.504ZM107.504 127.952V128.88H110.304V127.952H107.504ZM106.896 121.776V132.048H107.808V121.776H106.896ZM109.744 121.776V135.264H110.688V121.776H109.744ZM105.904 131.904L106.112 132.88C107.344 132.672 108.88 132.4 110.416 132.128L110.352 131.216C108.688 131.488 107.056 131.744 105.904 131.904ZM114.288 125.696C114.592 126.56 114.928 127.712 115.104 128.384L115.824 128.128C115.664 127.504 115.312 126.368 114.992 125.536L114.288 125.696ZM111.504 125.008C111.504 124.752 112.112 124.448 112.112 124.448V124.416C112.832 123.616 113.6 122.368 114.208 121.104L113.376 120.736C112.928 121.92 112.112 123.136 111.888 123.44C111.648 123.76 111.44 123.968 111.232 124C111.344 124.272 111.472 124.784 111.504 125.008ZM111.504 125.008C111.712 124.896 112.08 124.832 114 124.704C114.032 124.528 114.144 124.192 114.224 123.952L111.952 124.048L111.504 124.336V125.008ZM111.376 128.08C111.376 127.84 111.968 127.536 111.968 127.536V127.52C113.12 126.384 114.32 124.704 115.328 123.008L114.544 122.592C113.712 124.208 112.416 125.888 112.048 126.304C111.68 126.736 111.376 127.04 111.104 127.088C111.216 127.36 111.344 127.856 111.376 128.08ZM111.376 128.08C111.616 127.952 112.064 127.872 115.328 127.472C115.28 127.296 115.216 126.976 115.2 126.736L111.824 127.072L111.376 127.376V128.08ZM118.976 125.52C119.36 126.4 119.808 127.584 120 128.288L120.704 127.984C120.512 127.328 120.048 126.176 119.648 125.312L118.976 125.52ZM116.08 124.928C116.08 124.688 116.688 124.368 116.688 124.368V124.352C117.36 123.568 118.08 122.368 118.656 121.152L117.888 120.784C117.456 121.936 116.672 123.136 116.432 123.424C116.224 123.744 116.016 123.92 115.808 123.968C115.936 124.208 116.032 124.72 116.08 124.928ZM116.08 124.928C116.272 124.832 116.624 124.768 118.448 124.624C118.48 124.448 118.576 124.112 118.688 123.888L116.512 123.984L116.08 124.24V124.928ZM116.176 128C116.176 127.744 116.832 127.44 116.832 127.44V127.424C117.856 126.304 118.896 124.656 119.776 123.008L118.992 122.592C118.288 124.176 117.12 125.824 116.768 126.24C116.448 126.688 116.16 126.976 115.904 127.024C116.032 127.28 116.128 127.776 116.176 128ZM116.176 128C116.432 127.856 116.88 127.76 120.128 127.328C120.08 127.168 120.048 126.832 120.032 126.608L116.624 126.992L116.16 127.28L116.176 128ZM114.4 128.496V130.976C114.4 132.256 114.08 133.648 111.952 134.656C112.144 134.8 112.448 135.168 112.576 135.392C114.864 134.288 115.328 132.512 115.328 130.992V128.496H114.4ZM112.256 131.04V131.984H114.928V131.04H112.256ZM116.496 128.48V135.296H117.44V128.48H116.496ZM112.016 128.496V131.984H112.928V128.496H112.016ZM118.896 128.64V132.576H119.808V128.64H118.896ZM117.024 131.008V131.968H119.36V131.008H117.024ZM129.968 133.664V134.624H135.568V133.664H129.968ZM130.752 122.32V123.248H135.376V122.32H130.752ZM129.312 129.424V135.168H130.336V130.384H134.992V135.136H136.048V129.424H129.312ZM135.12 122.32V122.528C133.936 125.536 130.88 128.064 128.096 129.152C128.32 129.344 128.592 129.744 128.736 129.984C131.696 128.72 134.832 126.16 136.208 122.624L135.504 122.256L135.312 122.32H135.12ZM131.424 120.528C130.656 122.384 129.36 124.112 127.872 125.216C128.112 125.392 128.528 125.76 128.688 125.952C130.176 124.736 131.584 122.864 132.448 120.816L131.424 120.528ZM130.704 123.088L129.968 123.648C131.024 125.792 133.328 128.496 136.432 129.824C136.592 129.552 136.912 129.136 137.12 128.928C134.032 127.76 131.712 125.184 130.704 123.088ZM126.016 126.88C126.448 127.984 126.864 129.424 127.024 130.288L127.904 130C127.744 129.168 127.28 127.744 126.848 126.672L126.016 126.88ZM124.736 130.944C124.944 132.048 125.12 133.504 125.152 134.448L126.032 134.272C125.984 133.328 125.776 131.904 125.568 130.8L124.736 130.944ZM122.976 130.848C122.816 132.144 122.56 133.568 122.176 134.56C122.416 134.64 122.88 134.784 123.072 134.896C123.408 133.904 123.728 132.384 123.92 131.008L122.976 130.848ZM122.544 126.512C122.544 126.288 123.232 125.968 123.232 125.968V125.936C124.32 124.656 125.456 122.8 126.336 120.992L125.36 120.576C124.64 122.32 123.472 124.176 123.104 124.64C122.768 125.136 122.464 125.472 122.208 125.536C122.32 125.808 122.48 126.304 122.544 126.512ZM122.544 126.512C122.784 126.4 123.216 126.304 125.872 126.016C125.856 125.808 125.888 125.44 125.936 125.168L123.04 125.424L122.528 125.744L122.544 126.512ZM122.64 130.112C122.64 129.888 123.344 129.552 123.344 129.552V129.536C124.88 127.984 126.432 125.776 127.712 123.6L126.752 123.056C125.696 125.2 124 127.472 123.488 128.032C122.992 128.624 122.624 129.024 122.304 129.104C122.416 129.376 122.592 129.888 122.64 130.112ZM122.64 130.112C122.944 129.952 123.424 129.84 127.184 129.248C127.168 129.056 127.184 128.672 127.216 128.416L123.136 128.976L122.608 129.312L122.64 130.112ZM126.352 130.672C126.688 131.616 127.072 132.88 127.216 133.696L128.032 133.424C127.888 132.608 127.488 131.376 127.136 130.432L126.352 130.672Z" fill="#383747"/>
<rect x="38.0625" y="43.3872" width="94.4135" height="64.842" rx="6.9375" stroke="#BD6E6E" stroke-width="1.125"/>
<path d="M38.6375 54.767L86.4067 80.3576L131.901 54.767" stroke="#BD6E6E" stroke-width="1.125" stroke-linecap="round" stroke-linejoin="round"/>
<circle cx="129.626" cy="47.3741" r="13.2486" fill="#383747" stroke="#FBECC3" stroke-width="3.75"/>
<circle cx="129.626" cy="47.3742" r="9.0989" fill="#FBECC3"/>
</svg>
