<svg width="248" height="105" viewBox="0 0 248 105" fill="none" xmlns="http://www.w3.org/2000/svg">
<path d="M244.09 42.5506C243.127 69.0428 188.593 102.644 122.915 100.258C57.2362 97.8713 4.23261 89.3473 5.19519 62.8551C6.15777 36.3629 60.722 1.93456 126.401 4.32096C192.079 6.70737 245.053 16.0584 244.09 42.5506Z" fill="#383747"/>
<path d="M77.696 46.5333H75.512V50.3133C75.512 51.6573 75.736 52.1613 77.528 52.1613H79.096C81.924 52.1613 82.652 51.8533 82.652 50.9853C82.652 50.5373 82.456 50.3413 81.84 50.1453L81.728 50.1173H81.476C81.308 50.1733 81.084 50.2013 80.944 50.2013C80.832 50.2293 80.608 50.2573 80.44 50.2573C80.244 50.2573 79.824 50.2573 79.376 50.2573H78.228C77.752 50.2573 77.696 50.1453 77.696 49.8653V47.3173C77.696 47.1213 77.696 46.8413 77.696 46.5333ZM72.824 46.6173H70.304C70.22 49.1093 69.94 51.2933 65.376 53.1133L65.684 53.5333C71.732 51.9653 72.572 49.5293 72.824 46.6173ZM71.788 37.4613L71.536 37.6293C72.264 38.4133 73.076 39.7013 73.272 40.7933C75.568 42.4733 77.976 38.1333 71.788 37.4613ZM65.936 62.7173V46.9533H83.268V46.1413H66.16L63.276 44.9373V63.6693H63.696C64.844 63.6693 65.936 63.0253 65.936 62.7173ZM82.232 46.1413H82.512V60.1133C82.512 60.5053 82.4 60.6733 81.896 60.6733C81.28 60.6733 78.62 60.5053 78.62 60.5053V60.8973C79.908 61.0653 80.524 61.4013 80.944 61.7933C81.336 62.1853 81.476 62.8013 81.56 63.6133C84.752 63.3333 85.144 62.2133 85.144 60.3933V47.4013C85.732 47.3173 86.152 47.0653 86.348 46.8413L83.492 44.6853L82.232 46.1413ZM83.632 38.9453L81.924 41.0733H61.736L61.96 41.8853H86.012C86.404 41.8853 86.712 41.7453 86.796 41.4373C85.592 40.4013 83.632 38.9453 83.632 38.9453ZM78.004 58.6573H70.332V59.4693H78.004V58.6573ZM76.296 53.5053H76.52V61.0373H76.912C77.696 61.0373 78.9 60.5893 78.928 60.4213V54.5693C79.376 54.5133 79.712 54.2893 79.852 54.1213L77.444 52.2733L76.296 53.5053ZM71.76 60.8133V54.3173H78.144V53.5053H71.9L69.38 52.4413V61.5413H69.744C70.724 61.5413 71.76 61.0373 71.76 60.8133ZM80.916 42.6973L77.192 41.8293C76.828 43.3133 76.212 45.4973 75.652 46.8973H76.38C77.612 45.8333 78.984 44.3493 79.88 43.2573C80.496 43.2573 80.832 43.0333 80.916 42.6973ZM68.456 41.8853L68.176 42.0533C68.932 43.0333 69.772 44.6013 69.94 45.9453C72.208 47.7373 74.672 43.3693 68.456 41.8853ZM99.06 39.5333V49.9493H99.452C100.572 49.9493 101.72 49.3333 101.72 49.0813V40.3173H111.968V39.5333H101.888L99.06 38.3573V39.5333ZM110.68 39.5333V49.7533H111.1C112.024 49.7533 113.34 49.1653 113.368 48.9693V40.7933C113.928 40.6813 114.348 40.4293 114.516 40.2053L111.716 38.0773L110.4 39.5333H110.68ZM100.432 46.7853V47.5693H112.08V46.7853H100.432ZM94.636 51.7693V63.4453H95.028C96.12 63.4453 97.212 62.8573 97.212 62.6053V52.5813H103.512V51.7693H97.352L94.636 50.6493V51.7693ZM102.056 51.7693V62.9413H102.476C103.372 62.9413 104.632 62.3533 104.66 62.1293V53.0293C105.22 52.9173 105.612 52.6933 105.808 52.4693L103.064 50.3693L101.776 51.7693H102.056ZM95.616 59.9733V60.7573H103.288V59.9733H95.616ZM107.6 51.7693V63.5013H107.992C109.084 63.5013 110.176 62.9133 110.176 62.6613V52.5813H116.84V51.7693H110.316L107.6 50.6493V51.7693ZM115.216 51.7693V63.1093H115.636C116.532 63.1093 117.82 62.5773 117.848 62.3813V53.0293C118.436 52.9173 118.856 52.6933 119.024 52.4693L116.252 50.3413L114.936 51.7693H115.216ZM108.412 59.9733V60.7573H116.448V59.9733H108.412ZM134.732 43.2013L134.956 43.9853H150.832C151.252 43.9853 151.532 43.8453 151.588 43.5653C150.58 42.6133 148.9 41.3253 148.9 41.3253L147.444 43.2013H134.732ZM135.544 57.7613L135.768 58.5733H149.992C150.384 58.5733 150.664 58.4333 150.72 58.1253C149.768 57.2013 148.144 55.9413 148.144 55.9413L146.716 57.7613H135.544ZM133.92 61.7933L134.144 62.6053H151.112C151.504 62.6053 151.784 62.4653 151.868 62.1573C150.86 61.2333 149.152 59.8893 149.152 59.8893L147.668 61.7933H133.92ZM147.696 37.7133C144.924 38.8053 139.548 40.2053 135.264 40.8493L135.348 41.3253C139.94 41.2973 145.344 40.7933 148.732 40.2333C149.488 40.5413 150.076 40.5133 150.384 40.2613L147.696 37.7133ZM137.364 50.0613V50.8733H148.48V50.0613H137.364ZM137.364 53.9253V54.7373H148.564V53.9253H137.364ZM141.62 40.0933V62.2413H144.084V40.0933H141.62ZM136.132 46.3373V56.2773H136.468C137.476 56.2773 138.512 55.7453 138.512 55.4933V47.1493H148.284V46.3373H138.652L136.132 45.2733V46.3373ZM147.5 46.3373V55.8853H147.892C148.704 55.8853 149.936 55.3813 149.964 55.2133V47.4853C150.44 47.4013 150.832 47.1773 151 46.9813L148.424 45.0213L147.22 46.3373H147.5ZM125.408 46.2253L125.632 47.0373H135.516C135.908 47.0373 136.16 46.8973 136.244 46.5893C135.376 45.6653 133.892 44.3773 133.892 44.3773L132.576 46.2253H125.408ZM129.216 46.3373C128.488 50.5653 127.032 55.1013 124.82 58.4053L125.184 58.7413C128.544 55.5773 130.812 51.4893 131.904 46.7853V46.3373H129.216ZM129.496 41.0733V63.6693H129.916C131.12 63.6693 131.932 63.0813 131.932 62.9133V40.0933L129.496 41.0733ZM131.932 49.5293L131.624 49.6973C132.464 50.8733 133.444 52.6093 133.668 54.0373C135.656 55.7173 137.812 51.7973 131.932 49.5293ZM133.108 37.9653C131.428 39.2813 127.984 41.1853 125.184 42.2213L125.324 42.5853C128.572 42.2213 132.296 41.3533 134.536 40.5413C135.348 40.7933 135.88 40.7373 136.188 40.4573L133.108 37.9653ZM161.948 46.9253C162.676 46.8973 162.956 46.7293 163.012 46.4213L160.1 45.2453C159.792 46.7853 158.672 49.0813 157.384 50.3973L157.692 50.7053C159.596 49.8373 161.136 48.2973 161.948 46.9253ZM170.068 39.8973L167.184 38.5533C166.764 40.1493 166.26 41.8573 165.756 42.8933L166.204 43.1453C167.184 42.3893 168.192 41.3533 169.004 40.3453C169.564 40.4013 169.928 40.2053 170.068 39.8973ZM165.868 38.2733L162.788 37.9653V50.7333H163.236C164.048 50.7333 165.084 50.1453 165.084 49.9213V38.8893C165.644 38.7773 165.812 38.5813 165.868 38.2733ZM158.616 38.7773L158.308 38.9453C159.008 39.9253 159.736 41.5213 159.764 42.8093C161.584 44.5173 163.908 40.7933 158.616 38.7773ZM165.84 45.4413L165.56 45.6373C166.456 46.5893 167.464 48.1573 167.688 49.4173C169.76 51.0413 171.86 46.9813 165.84 45.4413ZM168.528 42.3613L167.324 43.8733H157.636L157.86 44.6853H170.096C170.488 44.6853 170.74 44.5453 170.824 44.2373C169.956 43.4253 168.528 42.3613 168.528 42.3613ZM165.924 50.3693L165.672 50.5653C166.428 51.2373 167.268 52.4133 167.436 53.3653C169.368 54.5973 170.908 50.8733 165.924 50.3693ZM165.7 51.4333L162.172 51.1253C162.116 55.9413 162.2 60.0853 157.384 63.2773L157.692 63.6693C164.328 60.8973 164.552 56.6693 164.804 52.1333C165.392 52.0493 165.644 51.7693 165.7 51.4333ZM163.936 56.5013L163.684 56.7253C165 57.8173 166.708 59.6373 167.296 61.2053C169.816 62.6053 171.272 57.5933 163.936 56.5013ZM168.304 53.0293L166.96 54.6813H157.468L157.692 55.4933H170.04C170.432 55.4933 170.712 55.3533 170.768 55.0453C169.816 54.1773 168.304 53.0293 168.304 53.0293ZM176.48 59.4973L173.372 57.7613C172.252 59.6093 169.872 61.9893 167.688 63.3613L167.94 63.7253C170.712 62.9133 173.96 61.2053 175.556 59.6653C176.032 59.8053 176.34 59.7493 176.48 59.4973ZM173.596 57.5933V44.6853H180.512V43.8733H173.736L171.16 42.7533V58.4333H171.552C172.616 58.4333 173.596 57.8453 173.596 57.5933ZM179.084 43.8733H179.336V58.0133H179.756C180.624 58.0133 181.828 57.4813 181.856 57.2853V45.0213C182.332 44.9373 182.696 44.7413 182.864 44.5453L180.316 42.5573L179.084 43.8733ZM177.292 58.0693L177.04 58.3213C178.636 59.4973 180.68 61.5133 181.492 63.1933C184.18 64.5093 185.356 59.2173 177.292 58.0693ZM178.412 39.9533H175.108C175.024 41.2133 174.8 43.2013 174.632 44.2653H175.22C176.256 43.2293 177.544 41.3813 178.412 39.9533ZM180.4 56.3333H172.392V57.1453H180.4V56.3333ZM180.4 52.0493H172.392V52.8333H180.4V52.0493ZM180.4 47.9333H172.392V48.7453H180.4V47.9333ZM180.848 37.6293L179.252 39.6733H170.18L170.404 40.4853H183.004C183.396 40.4853 183.676 40.3453 183.76 40.0373C182.668 39.0573 180.848 37.6293 180.848 37.6293Z" fill="white"/>
<path d="M17.3839 78.1782C14.5624 76.9774 9.37268 74.4897 7.85598 71.4643C6.87393 69.5054 5.69395 66.8422 4.57909 65.0607C2.19093 61.2445 -0.179728 56.2901 2.89152 52.3926C4.57904 50.2511 7.2368 44.95 7.45387 42.2251C7.78597 38.0564 15.4675 37.827 18.2343 36.8202C22.1533 35.394 27.4841 32.6796 31.0545 30.4012C33.3751 28.9204 38.8852 26.0371 41.5676 25.958C43.3168 25.9064 45.271 24.4704 46.8627 23.9295C48.7626 23.2839 50.7177 23.442 52.7173 23.0504C56.7893 22.2528 60.6833 20.1578 64.7366 19.5519C67.0893 19.2002 70.2082 18.0245 72.4883 17.2744C76.5335 15.9434 80.6897 14.7967 84.6561 13.2416C96.0329 8.78103 108.761 8.32517 120.655 6.31591C131.142 4.54428 143.408 3.1854 154.04 4.34246C163.017 5.31932 170.992 7.90751 179.737 10.1204C190.559 12.8588 201.297 16.1592 211.438 21.2324C217.447 24.2382 223.878 25.8835 229.704 29.0311C233.941 31.3206 238.587 32.8218 241.73 36.9078C244.781 40.8741 244.407 45.1419 245.852 49.6808C246.935 53.0829 246.616 59.696 244.454 62.4398C242.892 64.4219 241.221 69.2762 238.296 69.7575C235.304 70.2499 230.486 73.591 227.815 75.2949C224.578 77.361 221.09 80.5321 217.346 81.2207C206.557 83.2052 195.84 86.2706 184.718 86.5985C179.862 86.7417 175.216 88.1505 170.248 88.2969C164.289 88.4726 158.421 89.2815 152.41 89.4587C143.053 89.7346 134.256 92.5375 124.716 92.8188C111.572 93.2063 98.5066 94.2274 85.2812 94.6173C78.3082 94.8229 69.6172 96.5668 62.8533 94.9606C56.481 93.4474 49.4827 91.8984 43.4642 89.1733C40.1531 87.6741 36.1356 87.6138 32.7029 86.3111C31.2479 85.759 29.7324 85.363 28.229 84.9946C26.6557 84.6091 25.3291 83.3285 23.7385 83.1133C20.503 82.6756 16.5151 80.033 14.9832 76.9772" stroke="#BD6E6E" stroke-linecap="round"/>
</svg>
