<svg width="205" height="87" viewBox="0 0 205 87" fill="none" xmlns="http://www.w3.org/2000/svg">
<path d="M202.078 35.2268C201.281 57.1592 156.133 84.977 101.759 83.0014C47.3849 81.0257 3.50427 73.9689 4.30117 52.0365C5.09807 30.1041 50.2707 1.60159 104.645 3.57724C159.019 5.5529 202.874 13.2944 202.078 35.2268Z" fill="#BD6E6E"/>
<path d="M14.3918 64.7223C12.0559 63.7282 7.75946 61.6687 6.50382 59.164C5.6908 57.5423 4.71392 55.3375 3.79094 53.8626C1.81383 50.7033 -0.148793 46.6016 2.39383 43.3749C3.7909 41.602 5.99121 37.2133 6.17092 34.9575C6.44586 31.5063 12.8053 31.3164 15.0958 30.4828C18.3403 29.3021 22.7535 27.0549 25.7094 25.1687C27.6306 23.9427 32.1923 21.5557 34.413 21.4902C35.8612 21.4475 37.479 20.2587 38.7967 19.8109C40.3696 19.2764 41.9882 19.4073 43.6436 19.0831C47.0148 18.4227 50.2385 16.6884 53.5942 16.1867C55.5419 15.8956 58.124 14.9223 60.0116 14.3012C63.3606 13.1994 66.8015 12.25 70.0851 10.9626C79.5038 7.26975 90.0409 6.89235 99.8879 5.22892C108.57 3.76223 118.725 2.63724 127.527 3.59515C134.958 4.40387 141.561 6.54658 148.801 8.37861C157.76 10.6457 166.65 13.378 175.046 17.578C180.02 20.0664 185.345 21.4285 190.167 24.0344C193.675 25.9298 197.522 27.1727 200.124 30.5554C202.649 33.8389 202.34 37.3722 203.536 41.1299C204.432 43.9464 204.169 49.4213 202.379 51.6928C201.086 53.3337 199.703 57.3525 197.281 57.751C194.804 58.1586 190.815 60.9246 188.604 62.3353C185.924 64.0458 183.036 66.6711 179.937 67.2411C171.004 68.8841 162.132 71.4219 152.925 71.6933C148.905 71.8119 145.058 72.9782 140.945 73.0994C136.011 73.2449 131.154 73.9145 126.178 74.0612C118.431 74.2896 111.148 76.6101 103.25 76.843C92.3686 77.1638 81.5517 78.0091 70.6027 78.3319C64.8299 78.5021 57.6347 79.9459 52.035 78.6161C46.7596 77.3634 40.9658 76.081 35.9832 73.825C33.242 72.5838 29.916 72.5339 27.0741 71.4554C25.8695 70.9983 24.6149 70.6705 23.3702 70.3655C22.0678 70.0463 20.9695 68.9862 19.6526 68.808C16.974 68.4456 13.6725 66.2579 12.4043 63.728" stroke="#ABB7C4" stroke-linecap="round"/>
</svg>
