<svg width="180" height="180" viewBox="0 0 180 180" fill="none" xmlns="http://www.w3.org/2000/svg">
<circle cx="90" cy="90.0005" r="90" fill="#FBECC3"/>
<path d="M44.16 118.348C44 119.196 43.6 120.46 43.312 121.228L43.968 121.452C44.304 120.732 44.672 119.564 44.992 118.588L44.16 118.348ZM40.816 118.54C41.2 119.276 41.552 120.252 41.68 120.892L42.4 120.62C42.272 119.996 41.904 119.02 41.488 118.316L40.816 118.54ZM38.8 116.876V130.78H39.776V117.82H46.336V116.876H38.8ZM45.968 116.876V129.516C45.968 129.724 45.904 129.788 45.696 129.804C45.488 129.804 44.832 129.82 44.112 129.788C44.256 130.06 44.384 130.508 44.432 130.748C45.408 130.764 46.048 130.748 46.432 130.588C46.832 130.412 46.944 130.124 46.944 129.5V116.876H45.968ZM40.208 121.052V121.916H45.6V121.052H40.208ZM40.4 123.676V124.54H45.376V123.676H40.4ZM41.984 122.204C42.272 122.684 42.576 123.34 42.704 123.772L43.504 123.42C43.36 123.02 43.024 122.38 42.752 121.9L41.984 122.204ZM36.656 122.428C37.088 123.436 37.552 124.78 37.728 125.58L38.544 125.244C38.352 124.476 37.888 123.18 37.44 122.172L36.656 122.428ZM35.072 126.444C35.264 127.532 35.44 128.956 35.472 129.884L36.304 129.692C36.256 128.764 36.064 127.372 35.856 126.284L35.072 126.444ZM33.408 126.348C33.232 127.644 32.992 129.068 32.624 130.06C32.848 130.124 33.248 130.268 33.44 130.38C33.76 129.372 34.08 127.868 34.256 126.492L33.408 126.348ZM32.976 122.012C32.976 121.804 33.616 121.468 33.616 121.468V121.452C34.672 120.172 35.712 118.3 36.544 116.508L35.616 116.108C34.96 117.852 33.856 119.708 33.52 120.172C33.184 120.668 32.912 121.004 32.656 121.068C32.768 121.324 32.928 121.804 32.976 122.012ZM32.976 122.012C33.216 121.9 33.616 121.82 36.128 121.516C36.128 121.324 36.16 120.956 36.208 120.7L33.456 120.94L32.96 121.26L32.976 122.012ZM33.072 125.612C33.072 125.388 33.728 125.084 33.728 125.084V125.052C35.2 123.452 36.704 121.212 37.904 118.988L37.04 118.492C36.016 120.684 34.4 122.988 33.904 123.58C33.424 124.172 33.072 124.588 32.768 124.668C32.88 124.924 33.04 125.404 33.072 125.612ZM33.072 125.612C33.36 125.452 33.872 125.34 37.84 124.716C37.824 124.508 37.824 124.14 37.856 123.9L33.552 124.492L33.04 124.844L33.072 125.612ZM36.816 126.124C37.168 127.116 37.568 128.412 37.728 129.26L38.496 128.988C38.32 128.156 37.936 126.876 37.552 125.884L36.816 126.124ZM41.008 124.092V126.22C41.008 127.244 41.248 127.596 42.24 127.596C42.48 127.596 44.112 127.596 44.448 127.596C44.848 127.596 45.28 127.596 45.488 127.532C45.456 127.324 45.424 126.956 45.408 126.716C45.152 126.78 44.704 126.78 44.432 126.78C44.128 126.78 42.608 126.78 42.304 126.78C41.968 126.78 41.904 126.652 41.904 126.236V124.092H41.008ZM49.76 119.148V120.14H55.936V119.148H49.76ZM49.568 128.06L49.824 129.132C51.488 128.7 53.76 128.124 55.888 127.58L55.776 126.588C53.504 127.148 51.12 127.74 49.568 128.06ZM50.416 121.068C50.784 122.908 51.136 125.292 51.2 126.876L52.112 126.7C52.016 125.1 51.68 122.748 51.28 120.908L50.416 121.068ZM54.144 120.7C53.92 122.7 53.472 125.644 53.056 127.34L53.856 127.548C54.304 125.852 54.816 123.004 55.152 120.892L54.144 120.7ZM51.632 116.476C52.08 117.228 52.56 118.268 52.736 118.924L53.712 118.572C53.52 117.916 53.024 116.94 52.56 116.188L51.632 116.476ZM59.552 119.484V120.492H64.128V119.484H59.552ZM56.784 128.972V129.98H62.896V128.972H56.784ZM58.912 116.076V124.204H60V116.076H58.912ZM56.288 123.772V130.732H57.328V124.78H62.352V130.668H63.44V123.772H56.288ZM73.104 121.34V122.412H79.68V121.34H73.104ZM66.432 128.924V129.996H80.768V128.924H66.432ZM72.496 116.348V129.5H73.616V116.348H72.496ZM87.728 122.94V123.788H97.04V122.94H87.728ZM87.04 125.372V126.22H97.552V125.372H87.04ZM90.016 121.74V125.836H91.024V121.74H90.016ZM93.648 121.74V125.836H94.64V121.74H93.648ZM93.2 126.892C94.416 127.468 95.648 128.22 96.352 128.844L97.296 128.332C96.512 127.724 95.152 126.972 93.92 126.396L93.2 126.892ZM90.528 126.396C89.776 127.084 88.528 127.756 87.392 128.22C87.648 128.364 88.032 128.7 88.224 128.892C89.328 128.38 90.64 127.548 91.504 126.732L90.528 126.396ZM88.064 116.748V117.5H90.944V118.636H88.064V119.404H91.872V116.748H88.064ZM93.168 116.764V117.516H96.112V118.652H93.168V119.42H97.072V116.764H93.168ZM92.752 116.764V120.028C92.752 121.068 93.008 121.436 94.048 121.436C94.304 121.436 96.016 121.436 96.384 121.436C96.816 121.436 97.248 121.42 97.472 121.356C97.44 121.148 97.392 120.812 97.376 120.572C97.12 120.62 96.64 120.652 96.352 120.652C96.016 120.652 94.416 120.652 94.08 120.652C93.712 120.652 93.648 120.508 93.648 120.044V116.764H92.752ZM87.648 121.836C87.904 121.692 88.368 121.58 91.984 120.924C91.984 120.732 92 120.396 92.048 120.156L88.096 120.796L87.616 121.116L87.648 121.836ZM87.648 121.836C87.648 121.5 88.528 120.988 88.528 120.988V116.748H87.648V120.06C87.648 120.668 87.424 120.86 87.232 120.956C87.376 121.18 87.584 121.596 87.648 121.836ZM83.504 116.684C84.224 117.468 85.104 118.572 85.52 119.244L86.352 118.652C85.92 118.012 85.04 116.988 84.304 116.204L83.504 116.684ZM83.168 119.788V120.7H86.08V119.788H83.168ZM85.84 127.18L85.12 127.532C86.336 130.108 88.48 130.524 92.272 130.524C94.016 130.524 96.048 130.492 97.536 130.396C97.6 130.108 97.728 129.596 97.904 129.356C96.272 129.5 93.968 129.564 92.272 129.564C89.008 129.564 86.848 129.276 85.84 127.18ZM85.936 123.788V123.98C85.536 126.892 84.432 128.94 82.896 130.06C83.12 130.204 83.456 130.572 83.616 130.796C85.232 129.564 86.432 127.308 86.928 123.964L86.384 123.772L86.192 123.788H85.936ZM83.408 124.892C83.52 124.796 83.936 124.684 84.304 124.684H86.224V123.788H83.952L83.408 124.06V124.892ZM83.408 124.892C83.408 124.604 84.24 124.188 84.24 124.188C85.008 123.196 86.224 121.068 86.864 119.996L86.128 119.708L85.808 119.836V119.9C85.376 120.716 84.112 122.988 83.696 123.452C83.472 123.756 83.216 123.836 82.992 123.916C83.12 124.14 83.344 124.636 83.408 124.892ZM111.344 117.484H113.088V119.292H111.344V117.484ZM108.752 117.484H110.48V119.292H108.752V117.484ZM106.256 117.484H107.888V119.292H106.256V117.484ZM105.36 116.7V120.092H114V116.7H105.36ZM105.536 121.084V121.932H113.664V121.084H105.536ZM104.832 123.132V123.996H114.192V123.132H104.832ZM105.152 125.58V126.444H113.856V125.58H105.152ZM104.624 127.66V128.508H114.416V127.66H104.624ZM109.04 119.82V123.468H110.064V119.82H109.04ZM109.04 125.932V130.748H110.064V125.932H109.04ZM106.752 124.22C107.024 124.7 107.296 125.356 107.392 125.788L108.336 125.516C108.224 125.1 107.92 124.46 107.664 123.996L106.752 124.22ZM111.52 123.964C111.344 124.492 110.96 125.292 110.672 125.804L111.488 126.06C111.808 125.596 112.192 124.892 112.544 124.236L111.52 123.964ZM99.792 124.412L100.08 125.452C101.36 125.02 103.008 124.46 104.576 123.884L104.448 122.908C102.72 123.484 100.96 124.06 99.792 124.412ZM99.952 119.356V120.364H104.608V119.356H99.952ZM101.936 116.108V129.404C101.936 129.612 101.856 129.676 101.664 129.676C101.472 129.692 100.848 129.692 100.128 129.66C100.256 129.964 100.4 130.412 100.432 130.684C101.456 130.684 102.048 130.652 102.416 130.476C102.8 130.316 102.944 129.996 102.944 129.388V116.108H101.936ZM121.888 126.188V126.988H124.768V126.188H121.888ZM123.136 124.412V125.228H126.704V124.412H123.136ZM122.368 117.932V118.78H131.04V117.932H122.368ZM121.968 121.788V122.652H131.232V121.788H121.968ZM123.04 119.852V120.652H130.528V119.852H123.04ZM126.128 118.364V122.156H127.152V118.364H126.128ZM126.128 124.412V129.644C126.128 129.82 126.08 129.884 125.888 129.884C125.68 129.884 125.024 129.884 124.288 129.868C124.416 130.14 124.544 130.524 124.576 130.78C125.584 130.78 126.24 130.78 126.64 130.62C127.04 130.46 127.136 130.188 127.136 129.644V124.412H126.128ZM124.8 123.212C126.032 123.58 127.584 124.22 128.384 124.7L128.96 123.98C128.128 123.484 126.56 122.892 125.344 122.572L124.8 123.212ZM123.6 116.428C123.984 116.956 124.4 117.676 124.608 118.14L125.456 117.756C125.248 117.292 124.8 116.604 124.4 116.092L123.6 116.428ZM124.544 126.188V126.348C124.08 127.9 122.752 129.116 121.392 129.644C121.584 129.836 121.856 130.156 121.984 130.38C123.504 129.676 124.88 128.348 125.488 126.396L124.88 126.156L124.72 126.188H124.544ZM130.176 124.892C129.568 125.58 128.464 126.54 127.68 127.1L128.272 127.596C129.088 127.068 130.144 126.236 130.976 125.5L130.176 124.892ZM128.72 116.076C128.496 116.604 128.064 117.356 127.728 117.852L128.512 118.14C128.848 117.692 129.28 117.036 129.68 116.396L128.72 116.076ZM127.12 125.26L126.4 125.484C127.232 127.612 128.896 129.42 130.88 130.284C131.024 130.028 131.328 129.66 131.552 129.484C129.568 128.78 127.904 127.164 127.12 125.26ZM116.864 119.596V120.604H122.032V119.596H116.864ZM119.152 116.092V130.732H120.144V116.092H119.152ZM119.12 120.172C118.672 122.492 117.6 125.324 116.544 126.78C116.72 127.004 116.976 127.404 117.104 127.676C118.224 126.092 119.312 122.924 119.808 120.396L119.12 120.172ZM120.064 121.564L119.568 122.012C119.968 122.62 121.12 124.556 121.488 125.356L122.096 124.54C121.792 124.06 120.432 121.996 120.064 121.564ZM144.128 116.828C144.976 117.42 145.984 118.3 146.464 118.876L147.216 118.188C146.72 117.628 145.696 116.796 144.848 116.22L144.128 116.828ZM133.68 119.132V120.172H147.92V119.132H133.68ZM134.24 122.668V123.708H141.328V122.668H134.24ZM137.184 123.212V128.972H138.256V123.212H137.184ZM133.76 129.228L134.112 130.284C136.16 129.82 139.12 129.132 141.856 128.476L141.776 127.516C138.8 128.172 135.664 128.844 133.76 129.228ZM141.888 116.156C141.952 123.98 143.296 130.796 146.448 130.796C147.616 130.796 148.048 129.964 148.24 127.212C147.936 127.1 147.52 126.86 147.28 126.62C147.184 128.796 146.992 129.676 146.528 129.676C144.48 129.676 142.992 123.74 143.04 116.156H141.888Z" fill="#383747"/>
<rect x="45.5625" y="36.563" width="85.875" height="57.875" rx="6.9375" stroke="#BD6E6E" stroke-width="1.125"/>
<circle cx="96" cy="62.0005" r="14.4375" stroke="#BD6E6E" stroke-width="1.125"/>
<path d="M74.3119 64.5318L86.0032 84.7818C86.3641 85.4068 85.913 86.188 85.1913 86.188H61.8087C61.087 86.188 60.6359 85.4068 60.9968 84.7818L72.6881 64.5318C73.0489 63.9068 73.9511 63.9068 74.3119 64.5318Z" stroke="#BD6E6E" stroke-width="1.125"/>
<path d="M132.227 93.0504L126.591 95.1949L124.345 100.537C124.345 100.538 124.344 100.539 124.344 100.54C124.344 100.54 124.344 100.54 124.344 100.54C124.144 101.016 123.805 101.409 123.386 101.679C122.967 101.949 122.483 102.088 121.994 102.087M132.227 93.0504L121.996 100.212M132.227 93.0504C132.688 92.8795 133.1 92.5754 133.4 92.1626C133.705 91.7424 133.875 91.2327 133.875 90.7015C133.875 90.1702 133.705 89.6606 133.4 89.2403C133.096 88.8215 132.676 88.5146 132.206 88.3451C132.149 88.3246 132.092 88.3068 132.033 88.2919L117.505 83.2662L117.505 83.2662L117.501 83.2647C117.06 83.1133 116.586 83.0852 116.132 83.1817C115.677 83.2782 115.249 83.4981 114.903 83.8277C114.555 84.1582 114.304 84.5866 114.191 85.068C114.077 85.5503 114.112 86.0533 114.286 86.5143L114.286 86.5143L114.288 86.5189L119.617 100.46M132.227 93.0504L119.617 100.46M121.994 102.087L121.996 100.212M121.994 102.087C121.994 102.087 121.995 102.087 121.995 102.087L121.996 100.212M121.994 102.087C121.493 102.087 120.997 101.94 120.572 101.656C120.146 101.372 119.807 100.959 119.618 100.462L119.618 100.463L121.37 99.7938M121.996 100.212C121.859 100.212 121.725 100.172 121.613 100.097C121.501 100.022 121.416 99.9163 121.37 99.7938M121.37 99.7938L119.617 100.46M121.37 99.7938L119.617 100.46M130.923 89.5344C130.923 89.5343 130.923 89.5343 130.923 89.5343C130.926 89.533 130.93 89.5317 130.934 89.5304L130.923 89.5344ZM122.315 92.2685L122.096 92.7826L120.95 89.7645L123.976 90.8039L123.748 90.8918L123.744 90.8929L123.481 90.9932C123.002 91.1755 122.618 91.5462 122.419 92.0188L122.315 92.2685Z" fill="#383747" stroke="#FBECC3" stroke-width="3.75" stroke-linejoin="round"/>
</svg>
