<svg width="150" height="75" viewBox="0 0 150 75" fill="none" xmlns="http://www.w3.org/2000/svg">
<path d="M145.365 31.9632C144.801 47.486 112.848 67.1743 74.3642 65.776C35.8807 64.3777 4.82389 59.3832 5.3879 43.8604C5.95192 28.3376 37.9231 8.16478 76.4067 9.56306C114.89 10.9613 145.929 16.4405 145.365 31.9632Z" fill="#383747"/>
<path d="M12.5297 52.8389C10.8764 52.1353 7.83556 50.6777 6.94687 48.905C6.37145 47.7572 5.68005 46.1967 5.02681 45.1528C3.6275 42.9168 2.23844 40.0138 4.038 37.7301C5.02678 36.4754 6.58406 33.3692 6.71125 31.7726C6.90584 29.33 11.4068 29.1956 13.0279 28.6057C15.3242 27.77 18.4477 26.1796 20.5397 24.8446C21.8995 23.9769 25.1281 22.2874 26.6998 22.2411C27.7247 22.2109 28.8697 21.3695 29.8024 21.0525C30.9156 20.6743 32.0611 20.7669 33.2328 20.5374C35.6188 20.0701 37.9004 18.8426 40.2754 18.4875C41.6539 18.2814 43.4814 17.5926 44.8173 17.153C47.1876 16.3732 49.6229 15.7013 51.9469 14.7901C58.613 12.1765 66.0707 11.9094 73.04 10.7321C79.185 9.694 86.3719 8.89778 92.6017 9.57575C97.8613 10.1481 102.534 11.6646 107.658 12.9613C113.999 14.5658 120.291 16.4996 126.233 19.4722C129.754 21.2334 133.523 22.1974 136.936 24.0418C139.419 25.3833 142.141 26.2629 143.982 28.657C145.77 30.981 145.551 33.4816 146.398 36.1412C147.032 38.1346 146.845 42.0095 145.578 43.6172C144.663 44.7785 143.684 47.6228 141.971 47.9049C140.217 48.1934 137.394 50.151 135.829 51.1495C133.932 52.3601 131.888 54.2181 129.695 54.6216C123.373 55.7844 117.094 57.5805 110.577 57.7727C107.732 57.8565 105.009 58.682 102.098 58.7678C98.6066 58.8708 95.1686 59.3447 91.6467 59.4486C86.1639 59.6102 81.0095 61.2525 75.4198 61.4173C67.7182 61.6444 60.0625 62.2427 52.3132 62.4712C48.2275 62.5916 43.1351 63.6135 39.1719 62.6723C35.4381 61.7856 31.3375 60.8781 27.811 59.2813C25.871 58.4029 23.517 58.3676 21.5056 57.6043C20.653 57.2807 19.7651 57.0487 18.8842 56.8329C17.9623 56.607 17.185 55.8567 16.253 55.7306C14.3572 55.4741 12.0206 53.9257 11.123 52.1352" stroke="#BD6E6E" stroke-width="0.585938" stroke-linecap="round"/>
<path d="M37.76 34.0387L35.582 33.8227V41.8687H37.094V34.5247C37.562 34.4707 37.724 34.2907 37.76 34.0387ZM34.772 34.0747L32.648 33.8587V41.8507H34.106V34.5607C34.574 34.4887 34.736 34.3267 34.772 34.0747ZM31.892 34.0207L29.786 33.8047V41.8507H31.226V34.5067C31.712 34.4527 31.856 34.2727 31.892 34.0207ZM28.994 34.0027L26.816 33.7867V41.8327H28.328V34.4887C28.796 34.4347 28.958 34.2547 28.994 34.0027ZM36.194 42.5347L36.032 42.6607C37.004 43.5607 38.102 45.0367 38.372 46.3147C40.172 47.5027 41.432 43.7227 36.194 42.5347ZM32.54 42.6607L32.36 42.7687C32.99 43.6327 33.62 44.9647 33.674 46.0807C35.24 47.3947 36.878 44.1007 32.54 42.6607ZM29.012 42.7147L28.814 42.7867C29.264 43.7047 29.678 45.0007 29.642 46.1347C31.1 47.5567 32.936 44.4967 29.012 42.7147ZM27.194 42.5887L26.906 42.5707C26.708 43.7767 25.538 44.6227 24.602 44.9107C24.116 45.1447 23.738 45.5587 23.9 46.0987C24.08 46.7107 24.89 46.8187 25.52 46.5127C26.51 46.0807 27.572 44.7667 27.194 42.5887ZM37.436 31.1227L36.446 32.4367H26.78V32.9587H38.75C39.002 32.9587 39.182 32.8687 39.236 32.6707C38.57 32.0227 37.436 31.1227 37.436 31.1227ZM29.408 30.7627L26.996 29.8807C26.222 32.1667 24.962 34.4707 23.828 35.8567L24.026 36.0367C25.754 34.9567 27.446 33.2467 28.706 31.0867C29.102 31.1227 29.336 30.9787 29.408 30.7627ZM38.858 40.2487L37.94 41.5627H23.774L23.936 42.0847H40.01C40.262 42.0847 40.442 41.9947 40.496 41.7967C39.884 41.1487 38.858 40.2487 38.858 40.2487ZM38.39 35.9827L37.49 37.2607H24.404L24.548 37.7647H39.524C39.776 37.7647 39.956 37.6747 39.992 37.4767C39.398 36.8647 38.39 35.9827 38.39 35.9827ZM56.786 30.6187L56.48 30.8347C57.344 33.0307 58.982 34.9747 60.962 35.9827C61.07 35.3167 61.538 34.8307 62.258 34.4887L62.294 34.2547C60.206 33.7327 57.758 32.4907 56.786 30.6187ZM56.966 30.9247C57.47 30.9067 57.686 30.7807 57.758 30.5647L55.256 29.8627C54.518 31.8247 52.754 34.5067 50.648 36.1087L50.828 36.2887C53.546 35.0647 55.706 32.8507 56.966 30.9247ZM59.864 41.9047L57.668 41.1127C57.326 42.8947 56.408 45.0907 54.914 46.4227L55.058 46.6387C57.11 45.6667 58.46 43.8487 59.198 42.1927C59.63 42.1927 59.774 42.0847 59.864 41.9047ZM55.382 41.8147L53.222 41.0407C52.916 42.7867 52.124 45.0187 50.756 46.4047L50.936 46.6387C52.808 45.5767 54.05 43.7047 54.734 42.1027C55.166 42.1207 55.31 41.9947 55.382 41.8147ZM57.956 42.7507L57.794 42.8947C58.658 43.7227 59.81 45.0727 60.206 46.1347C61.808 47.1247 62.852 44.0287 57.956 42.7507ZM53.798 42.7327L53.618 42.8587C54.104 43.3447 54.644 44.2087 54.788 44.9107C56.048 45.8827 57.398 43.4707 53.798 42.7327ZM57.56 33.8587L56.804 34.8487H53.528L53.672 35.3707H58.532C58.784 35.3707 58.946 35.2807 58.982 35.0827C58.442 34.5607 57.56 33.8587 57.56 33.8587ZM59.144 36.7747H59.288V41.1847H59.486C59.9 41.1847 60.53 40.9147 60.548 40.7887V37.4047C60.8 37.3687 61.034 37.2607 61.106 37.1347L59.774 36.1267L59.144 36.7747ZM57.848 40.9507V37.2967H59.828V36.7747H57.92L56.606 36.2167V41.3467H56.786C57.308 41.3467 57.848 41.0587 57.848 40.9507ZM59.828 39.9067H57.218V40.4287H59.828V39.9067ZM54.41 36.7747H54.554V41.0947H54.734C55.13 41.0947 55.724 40.8427 55.742 40.7347V37.4047C55.994 37.3687 56.21 37.2427 56.3 37.1347L55.004 36.1627L54.41 36.7747ZM53.15 40.9867V37.2967H55.238V36.7747H53.222L51.908 36.2167V41.3827H52.088C52.61 41.3827 53.15 41.1127 53.15 40.9867ZM55.022 39.9067H52.646V40.4287H55.022V39.9067ZM47.03 34.3807L46.904 34.5787C47.642 34.8487 48.632 35.4247 49.118 35.8927C50.558 36.1447 50.63 33.5347 47.03 34.3807ZM47.192 39.0427L48.038 40.6627C48.2 40.5727 48.326 40.3567 48.344 40.1407C49.19 39.1327 49.856 38.2687 50.27 37.7467L50.162 37.5487C48.956 38.1967 47.732 38.8087 47.192 39.0427ZM49.334 31.0687H49.514V44.5507C49.514 44.8027 49.442 44.9107 49.136 44.9107C48.83 44.9107 47.39 44.8027 47.39 44.8027V45.0727C48.074 45.1987 48.434 45.3607 48.668 45.5767C48.866 45.7747 48.938 46.1347 48.992 46.5847C50.72 46.4227 50.936 45.7927 50.936 44.6947V31.8067C51.26 31.7347 51.512 31.6087 51.62 31.4827L50.036 30.2407L49.334 31.0687ZM50.306 31.0507H47.102V31.5727H50.306V31.0507ZM46.112 30.8707V36.6127C46.112 39.9247 46.148 43.6147 45.104 46.5487L45.374 46.6927C47.534 43.7947 47.534 39.6907 47.534 36.6127V31.0507H47.786L46.112 30.3847V30.8707ZM66.812 45.6127L66.956 46.1347H83.066C83.336 46.1347 83.534 46.0447 83.57 45.8467C82.814 45.1987 81.608 44.3167 81.608 44.3167L80.546 45.6127H66.812ZM66.848 38.5027L66.992 39.0247H83.048C83.3 39.0247 83.48 38.9347 83.534 38.7367C82.868 38.1427 81.788 37.3327 81.788 37.3327L80.834 38.5027H66.848ZM68.666 36.7207L68.828 37.2427H81.086C81.338 37.2427 81.518 37.1527 81.572 36.9547C80.906 36.3787 79.826 35.6407 79.826 35.6407L78.908 36.7207H68.666ZM66.884 33.2287L67.046 33.7507H83.174C83.426 33.7507 83.606 33.6607 83.642 33.4627C83.03 32.8687 82.004 32.0767 82.004 32.0767L81.086 33.2287H66.884ZM70.574 41.9767V42.4987H79.808V41.9767H70.574ZM70.556 43.8307V44.3527H79.808V43.8307H70.556ZM78.998 40.1587V44.9107H79.286C79.844 44.9107 80.69 44.5327 80.708 44.4067V40.9327C81.032 40.8607 81.284 40.7167 81.374 40.5907L79.646 39.2947L78.818 40.1587H78.998ZM69.584 40.1587V45.2347H69.836C70.538 45.2347 71.276 44.8747 71.276 44.7127V40.6807H79.808V40.1587H71.402L69.584 39.4207V40.1587ZM74.012 29.9167V38.7187H75.722V30.5827C76.136 30.5287 76.28 30.3667 76.316 30.1327L74.012 29.9167ZM69.224 31.5187L69.386 32.0407H79.502V31.5187H69.224ZM69.188 34.9387L69.35 35.4607H79.556V34.9387H69.188ZM78.818 31.5187V35.8927H79.106C79.664 35.8927 80.51 35.5327 80.51 35.4067V32.2927C80.834 32.2387 81.086 32.0947 81.194 31.9507L79.466 30.6727L78.656 31.5187H78.818ZM74.282 40.1587V44.0107H75.902V40.1587H74.282ZM94.91 41.6347L93.236 42.1927V42.9127H94.91V41.6347ZM92.678 44.9467L93.488 46.4587C95.486 45.5047 97.25 44.5147 98.168 43.9747L98.114 43.7407C95.864 44.2807 93.65 44.7847 92.678 44.9467ZM94.496 42.3727H93.236V44.1547C93.236 44.4427 93.128 44.6047 92.462 45.0007L93.398 46.7107C93.776 46.5127 94.244 45.9187 93.956 44.9107L93.344 45.4867L94.91 44.8927V42.6247L94.496 42.3727ZM103.856 41.7247L101.912 40.6447C101.3 41.3107 100.022 42.3187 98.978 42.9127L99.176 43.1467C100.544 42.8947 102.254 42.3907 103.208 41.9047C103.586 41.9767 103.748 41.9047 103.856 41.7247ZM97.178 40.0867L96.908 40.2307C98.006 43.8127 100.292 45.5227 103.766 46.5487C103.964 45.7027 104.432 45.1447 105.134 44.9647L105.152 44.7847C101.534 44.2447 98.438 42.9847 97.178 40.0867ZM97.61 40.3747V40.0867H95.36C93.902 41.7067 91.418 43.1647 88.538 44.0467L88.664 44.3167C92.426 43.6327 95.702 42.3547 97.61 40.3747ZM95.612 38.5387L95.468 38.6827C95.99 38.9707 96.566 39.6007 96.746 40.1587C98.204 40.7707 98.852 38.0347 95.612 38.5387ZM103.172 38.7547L102.2 39.9607H88.754L88.898 40.4827H104.504C104.756 40.4827 104.954 40.3927 104.99 40.1947C104.288 39.5827 103.172 38.7547 103.172 38.7547ZM96.386 35.2627H96.566V36.7567C96.566 36.9367 96.512 37.0447 96.296 37.0447C96.026 37.0447 95.342 36.9907 95.342 36.9907V37.2427C95.81 37.3327 96.008 37.4587 96.152 37.5847C96.278 37.7287 96.314 37.9807 96.332 38.2687C97.808 38.1427 98.006 37.6927 98.006 36.8467V36.0547C98.366 36.0007 98.654 35.8387 98.762 35.7127L97.07 34.4527L96.386 35.2627ZM92.624 30.6187L90.572 30.0247C90.41 31.2667 90.05 32.5627 89.618 33.4087L89.888 33.5707C90.698 32.9767 91.436 32.0407 91.958 30.9787C92.354 30.9967 92.552 30.8347 92.624 30.6187ZM96.638 30.6727L95.774 31.7347H90.662L90.464 32.2567H97.718C97.97 32.2567 98.132 32.1667 98.186 31.9687C97.574 31.3927 96.638 30.6727 96.638 30.6727ZM91.526 38.0707V35.7847H97.52V35.2627H91.616L90.104 34.6327V38.5027H90.302C90.878 38.5027 91.526 38.1967 91.526 38.0707ZM104.486 30.3307L102.272 30.1147V37.1347C102.272 37.3507 102.2 37.4227 101.93 37.4227C101.624 37.4227 100.13 37.3327 100.13 37.3327V37.5667C100.85 37.6927 101.21 37.8547 101.426 38.0527C101.66 38.2687 101.714 38.6107 101.768 39.0427C103.622 38.8807 103.856 38.2867 103.856 37.1707V30.7807C104.27 30.7267 104.45 30.5827 104.486 30.3307ZM97.412 32.4727L96.548 33.5527H89.006L89.15 34.0747H98.51C98.762 34.0747 98.942 33.9847 98.996 33.7867C98.384 33.2287 97.412 32.4727 97.412 32.4727ZM95.342 30.1687L93.2 29.9527V39.3307H93.488C94.064 39.3307 94.712 39.0247 94.712 38.8627V30.6187C95.162 30.5647 95.306 30.4027 95.342 30.1687ZM101.48 30.7807L99.374 30.5647V36.7207H99.644C100.202 36.7207 100.85 36.4507 100.85 36.3247V31.2487C101.3 31.1767 101.444 31.0147 101.48 30.7807ZM120.344 37.4947V38.0167H125.672C125.924 38.0167 126.104 37.9267 126.158 37.7287C125.474 37.1167 124.358 36.2347 124.358 36.2347L123.368 37.4947H120.344ZM120.344 41.3827V41.9047H125.996C126.248 41.9047 126.446 41.8147 126.5 41.6167C125.762 40.9507 124.574 40.0327 124.574 40.0327L123.53 41.3827H120.344ZM119.606 33.7147V46.6567H119.93C120.83 46.6567 121.388 46.2967 121.388 46.1707V33.7147H119.606ZM118.67 29.9707C117.788 33.1027 116.258 36.2887 114.818 38.2507L115.034 38.4307C117.158 36.7567 119.03 34.2187 120.398 31.1587C120.794 31.1947 121.028 31.0507 121.1 30.8347L118.67 29.9707ZM117.896 33.7147V34.2187H126.41C126.662 34.2187 126.842 34.1287 126.896 33.9307C126.176 33.2827 124.988 32.3467 124.988 32.3467L123.926 33.7147H117.896ZM112.46 35.4607V46.6747H112.784C113.45 46.6747 114.17 46.2967 114.188 46.1527V35.7847C114.512 35.7307 114.674 35.6047 114.728 35.4427L112.964 34.7947L112.46 35.4607ZM114.152 29.9527C113.198 33.4807 111.47 37.0627 109.85 39.2767L110.066 39.4387C112.424 37.5307 114.44 34.6147 115.862 31.1047C116.276 31.1407 116.51 30.9787 116.6 30.7627L114.152 29.9527Z" fill="white"/>
</svg>
