<svg width="180" height="180" viewBox="0 0 180 180" fill="none" xmlns="http://www.w3.org/2000/svg">
<circle cx="90" cy="90.0005" r="90" fill="#FBECC3"/>
<path d="M46.952 120.759V121.655H55.88V120.759H46.952ZM52.216 131.591C53.288 132.263 54.664 133.239 55.336 133.879L56.056 133.143C55.352 132.503 53.976 131.559 52.888 130.935L52.216 131.591ZM49.544 130.951C48.792 131.687 47.304 132.599 46.12 133.143C46.328 133.351 46.632 133.671 46.792 133.895C47.976 133.319 49.48 132.391 50.488 131.559L49.544 130.951ZM46.312 129.927V130.855H56.328V129.927H46.312ZM48.216 124.631V125.303H54.456V124.631H48.216ZM48.2 126.327V127.031H54.536V126.327H48.2ZM48.232 128.071V128.775H54.408V128.071H48.232ZM47.784 122.759V130.183H48.744V123.543H53.832V130.183H54.824V122.759H47.784ZM50.808 119.239C50.664 120.439 50.328 122.199 50.024 123.271L50.92 123.399C51.272 122.359 51.656 120.695 51.944 119.319L50.808 119.239ZM41.656 123.095V124.119H46.392V123.095H41.656ZM43.496 119.399V129.991H44.536V119.399H43.496ZM41.56 130.519L41.96 131.591C43.256 131.063 44.872 130.375 46.44 129.687L46.264 128.727C44.536 129.415 42.744 130.119 41.56 130.519ZM59.016 120.551V123.303H60.008V121.495H71.56V123.303H72.584V120.551H59.016ZM64.68 122.071C63.784 122.455 62.248 122.855 60.936 123.143C61.032 123.351 61.176 123.639 61.224 123.847C62.584 123.607 64.216 123.207 65.368 122.791L64.68 122.071ZM60.936 123.143V127.239H61.896V123.367L60.936 123.143ZM60.936 126.839V127.639H70.648V122.903H66.232V123.719H69.656V126.839H60.936ZM61.352 124.871V125.671H65.096V124.871H61.352ZM66.52 124.871V125.671H70.232V124.871H66.52ZM63.192 127.223C62.232 128.711 60.36 129.927 58.52 130.647C58.728 130.855 59.048 131.303 59.176 131.511C61.08 130.631 63.048 129.223 64.168 127.511L63.192 127.223ZM62.44 128.743L61.544 129.639H71.416V128.743H62.44ZM71.064 128.743V128.887C70.888 131.527 70.728 132.535 70.44 132.823C70.328 132.951 70.184 132.967 69.896 132.951C69.624 132.967 68.888 132.951 68.088 132.887C68.264 133.143 68.376 133.543 68.392 133.831C69.192 133.879 69.96 133.895 70.344 133.847C70.776 133.831 71.064 133.735 71.32 133.479C71.72 133.063 71.912 131.975 72.088 129.191C72.104 129.047 72.12 128.743 72.12 128.743H71.064ZM62.104 130.167C61.8 131.095 61.24 132.311 60.568 133.031L61.448 133.479C62.104 132.695 62.616 131.479 62.968 130.519L62.104 130.167ZM63.704 130.391C64.056 131.303 64.296 132.455 64.28 133.191L65.176 133.063C65.176 132.327 64.904 131.175 64.568 130.279L63.704 130.391ZM65.752 130.391C66.248 131.159 66.696 132.215 66.84 132.887L67.672 132.615C67.528 131.943 67.048 130.919 66.536 130.151L65.752 130.391ZM67.784 130.359C68.344 130.887 68.952 131.671 69.208 132.199L69.96 131.799C69.704 131.271 69.08 130.519 68.504 130.007L67.784 130.359ZM64.648 119.447C65.016 120.039 65.368 120.807 65.512 121.303L66.616 120.951C66.488 120.455 66.072 119.687 65.736 119.143L64.648 119.447ZM76.088 124.055V124.919H80.936V124.055H76.088ZM76.088 126.151V127.015H80.936V126.151H76.088ZM75.368 121.959V122.855H81.448V121.959H75.368ZM76.552 128.263V129.175H79.912V131.991H76.552V132.903H80.888V128.263H76.552ZM76.072 128.263V133.671H77.032V128.263H76.072ZM77.192 119.591C77.624 120.247 78.136 121.143 78.392 121.719L79.272 121.207C79.016 120.647 78.504 119.799 78.024 119.159L77.192 119.591ZM81.768 120.599V121.639H89.944V120.599H81.768ZM86.344 120.903V132.215C86.344 132.519 86.216 132.615 85.896 132.631C85.544 132.647 84.36 132.647 83.112 132.599C83.304 132.903 83.496 133.415 83.56 133.719C85.112 133.719 86.104 133.719 86.664 133.527C87.224 133.351 87.4 132.967 87.4 132.215V120.903H86.344ZM98.84 128.295C97.368 129.543 94.472 130.615 92.024 131.079C92.232 131.271 92.504 131.639 92.648 131.879C95.112 131.351 98.072 130.135 99.704 128.695L98.84 128.295ZM100.088 128.215L99.192 128.455C100.344 131.255 102.696 132.999 106.088 133.687C106.232 133.415 106.488 133.015 106.696 132.807C103.432 132.263 101.096 130.679 100.088 128.215ZM104.872 129.063C104.04 129.671 102.6 130.487 101.528 130.983L102.216 131.511C103.288 131.047 104.648 130.343 105.672 129.623L104.872 129.063ZM92.296 127.975V128.871H106.504V127.975H92.296ZM101.608 120.055V125.303H102.584V120.055H101.608ZM104.632 119.383V126.055C104.632 126.263 104.568 126.327 104.328 126.327C104.104 126.343 103.32 126.343 102.424 126.311C102.568 126.583 102.712 126.951 102.776 127.223C103.896 127.223 104.616 127.223 105.064 127.063C105.496 126.903 105.608 126.647 105.608 126.071V119.383H104.632ZM95.912 119.223V127.319H96.856V119.223H95.912ZM98.952 123.911V125.895C98.952 126.023 98.92 126.071 98.76 126.087C98.632 126.087 98.216 126.087 97.656 126.071C97.768 126.295 97.928 126.567 97.96 126.791C98.68 126.791 99.16 126.791 99.464 126.647C99.8 126.535 99.864 126.311 99.864 125.895V123.911H98.952ZM93.096 123.911V126.887H93.96V124.663H99.368V123.911H93.096ZM92.232 122.215V123.015H100.312V122.215H92.232ZM93.864 120.375L93.56 121.175H99.736V120.375H93.864ZM93.8 119.287C93.512 120.167 93.064 121.079 92.504 121.735C92.728 121.847 93.112 122.039 93.288 122.167C93.8 121.495 94.328 120.455 94.664 119.495L93.8 119.287ZM95.192 133.895C95.496 133.703 95.976 133.575 100.296 132.535C100.28 132.343 100.296 131.991 100.328 131.719L95.64 132.727L95.16 133.111L95.192 133.895ZM95.208 133.879C95.208 133.463 96.488 132.711 96.488 132.711V130.311H95.464V131.895C95.464 132.599 95.048 132.903 94.792 133.063C94.952 133.239 95.144 133.655 95.208 133.879ZM98.632 126.951C98.92 127.447 99.256 128.151 99.368 128.567L100.408 128.231C100.28 127.815 99.944 127.143 99.624 126.663L98.632 126.951ZM112.152 127.527H120.408V128.695H112.152V127.527ZM112.152 129.415H120.408V130.599H112.152V129.415ZM112.152 125.639H120.408V126.791H112.152V125.639ZM111.112 124.887V131.335H121.48V124.887H111.112ZM117.752 132.087C119.512 132.647 121.272 133.319 122.312 133.831L123.272 133.207C122.12 132.695 120.232 132.007 118.488 131.479L117.752 132.087ZM113.8 131.495C112.648 132.119 110.712 132.695 109.08 133.047C109.32 133.239 109.704 133.655 109.864 133.863C111.464 133.431 113.48 132.695 114.776 131.943L113.8 131.495ZM115.64 120.327V121.175H122.248V120.327H115.64ZM115.928 119.191C115.544 120.359 114.872 121.511 114.056 122.279C114.296 122.407 114.696 122.679 114.872 122.839C115.688 122.007 116.456 120.727 116.888 119.399L115.928 119.191ZM117.864 120.823V121.335C117.864 122.183 117.496 123.351 113.288 123.927C113.48 124.135 113.768 124.503 113.864 124.759C118.376 124.039 118.872 122.583 118.872 121.367V120.823H117.864ZM118.712 121.831L117.944 122.023C118.824 123.415 120.664 124.343 122.936 124.679C123.064 124.407 123.336 124.007 123.56 123.799C121.368 123.607 119.512 122.871 118.712 121.831ZM109.336 120.199V121.063H113.144V120.199H109.336ZM108.984 122.711V123.591H113.56V122.711H108.984ZM121.912 120.327V120.487C121.624 121.175 121.16 121.991 120.792 122.519L121.64 122.807C122.088 122.247 122.584 121.335 122.984 120.519L122.264 120.279L122.088 120.327H121.912ZM126.424 124.055V124.919H130.936V124.055H126.424ZM126.424 126.151V127.015H130.952V126.151H126.424ZM125.768 121.959V122.855H131.56V121.959H125.768ZM126.84 128.263V129.175H130.04V131.991H126.84V132.903H130.936V128.263H126.84ZM126.408 128.263V133.671H127.272V128.263H126.408ZM127.496 119.591C127.912 120.247 128.424 121.143 128.632 121.719L129.464 121.207C129.208 120.647 128.712 119.799 128.264 119.159L127.496 119.591ZM131.528 126.023V127.031H137.016V126.023H131.528ZM137.608 120.151C137.608 127.383 137.448 133.079 139.096 133.591C139.816 133.847 140.296 133.351 140.456 131.095C140.28 130.951 139.976 130.599 139.8 130.343C139.736 131.527 139.608 132.535 139.512 132.503C138.552 132.279 138.6 126.871 138.664 120.151H137.608ZM133.784 120.791V133.879H134.792V120.791H133.784ZM131.704 120.151V121.175H138.088V120.151H131.704Z" fill="#383747"/>
<path d="M122.794 68.4959L122.109 68.321L121.926 68.9723L117.897 83.3079C117.834 83.5327 117.817 83.7657 117.852 84.0012C117.886 84.2256 117.964 84.4391 118.083 84.6366L119.598 87.1306C119.845 87.5379 120.221 87.822 120.697 87.9432C121.172 88.065 121.636 87.9967 122.05 87.7692L124.67 86.3313C124.871 86.2207 125.045 86.0766 125.19 85.9026L125.19 85.9016C125.341 85.7188 125.447 85.5114 125.51 85.287L129.539 70.9514L129.731 70.2683L129.013 70.0848L122.794 68.4959ZM129.928 66.91L130.61 67.0801L130.792 66.4326L131.349 64.4493C131.551 63.7316 131.443 63.0285 131.028 62.39C130.62 61.7643 130.029 61.3474 129.289 61.1584L129.118 61.8298L129.289 61.1584L127.24 60.635C126.488 60.4428 125.756 60.543 125.084 60.9119C124.411 61.281 123.954 61.8334 123.753 62.5492L123.205 64.4977L123.012 65.1848L123.735 65.3653L129.928 66.91Z" stroke="#383747" stroke-width="1.41702"/>
<line x1="52.8637" y1="50.7736" x2="94.4295" y2="50.7736" stroke="#BD6E6E" stroke-width="0.944678" stroke-linecap="round"/>
<line x1="67.9782" y1="65.8012" x2="92.5398" y2="65.8012" stroke="#BD6E6E" stroke-width="0.944678" stroke-linecap="round"/>
<circle cx="58.0595" cy="64.4715" r="3.30637" stroke="#BD6E6E" stroke-width="0.944678"/>
<line x1="67.9784" y1="77.1374" x2="92.5401" y2="77.1374" stroke="#BD6E6E" stroke-width="0.944678" stroke-linecap="round"/>
<circle cx="58.0595" cy="75.8076" r="3.30637" stroke="#BD6E6E" stroke-width="0.944678"/>
<line x1="67.9784" y1="88.4737" x2="92.5401" y2="88.4737" stroke="#BD6E6E" stroke-width="0.944678" stroke-linecap="round"/>
<circle cx="58.0595" cy="87.1438" r="3.30637" stroke="#BD6E6E" stroke-width="0.944678"/>
<rect x="42.7085" y="36.8396" width="61.8764" height="68.4892" rx="8.73827" stroke="#BD6E6E" stroke-width="1.41702"/>
</svg>
