<svg width="150" height="76" viewBox="0 0 150 76" fill="none" xmlns="http://www.w3.org/2000/svg">
<path d="M145.365 32.2296C144.801 47.7524 112.848 67.4406 74.3642 66.0423C35.8807 64.644 4.82389 59.6495 5.3879 44.1268C5.95192 28.604 37.9231 8.43114 76.4067 9.82942C114.89 11.2277 145.929 16.7068 145.365 32.2296Z" fill="#383747"/>
<path d="M12.5297 53.1052C10.8764 52.4016 7.83556 50.9439 6.94687 49.1713C6.37145 48.0235 5.68005 46.463 5.02681 45.4191C3.6275 43.1831 2.23844 40.2801 4.038 37.9964C5.02678 36.7417 6.58406 33.6355 6.71125 32.0389C6.90584 29.5963 11.4068 29.4619 13.0279 28.872C15.3242 28.0363 18.4477 26.4459 20.5397 25.1109C21.8995 24.2432 25.1281 22.5537 26.6998 22.5074C27.7247 22.4772 28.8697 21.6358 29.8024 21.3188C30.9156 20.9406 32.0611 21.0332 33.2328 20.8037C35.6188 20.3364 37.9004 19.1089 40.2754 18.7538C41.6539 18.5477 43.4814 17.8589 44.8173 17.4193C47.1876 16.6395 49.6229 15.9676 51.9469 15.0564C58.613 12.4428 66.0707 12.1757 73.04 10.9984C79.185 9.9603 86.3719 9.16408 92.6017 9.84205C97.8613 10.4144 102.534 11.9309 107.658 13.2276C113.999 14.8321 120.291 16.7659 126.233 19.7385C129.754 21.4997 133.523 22.4637 136.936 24.3081C139.419 25.6496 142.141 26.5292 143.982 28.9233C145.77 31.2473 145.551 33.7479 146.398 36.4075C147.032 38.4009 146.845 42.2758 145.578 43.8835C144.663 45.0448 143.684 47.8891 141.971 48.1712C140.217 48.4597 137.394 50.4173 135.829 51.4158C133.932 52.6264 131.888 54.4844 129.695 54.8879C123.373 56.0507 117.094 57.8468 110.577 58.039C107.732 58.1228 105.009 58.9483 102.098 59.0341C98.6066 59.1371 95.1686 59.611 91.6467 59.7148C86.1639 59.8765 81.0095 61.5188 75.4198 61.6836C67.7182 61.9107 60.0625 62.509 52.3132 62.7375C48.2275 62.8579 43.1351 63.8798 39.1719 62.9386C35.4381 62.0519 31.3375 61.1444 27.811 59.5476C25.871 58.6692 23.517 58.6338 21.5056 57.8706C20.653 57.547 19.7651 57.315 18.8842 57.0992C17.9623 56.8733 17.185 56.1229 16.253 55.9969C14.3572 55.7404 12.0206 54.192 11.123 52.4015" stroke="#BD6E6E" stroke-width="0.585938" stroke-linecap="round"/>
<path d="M41.676 40.353V40.875H47.976V40.353H41.676ZM39.876 32.271L40.02 32.775H49.65C49.902 32.775 50.082 32.685 50.118 32.487C49.542 31.929 48.606 31.173 48.606 31.173L47.778 32.271H39.876ZM39.606 36.231L39.75 36.753H49.902C50.154 36.753 50.334 36.663 50.37 36.465C49.812 35.925 48.858 35.151 48.858 35.151L48.03 36.231H39.606ZM39.426 42.765L39.57 43.287H50.226C50.478 43.287 50.622 43.197 50.658 42.999C50.226 42.459 49.398 41.685 49.398 41.685L48.696 42.765H39.426ZM40.128 34.197L40.272 34.719H49.308C49.56 34.719 49.722 34.629 49.776 34.431C49.272 33.945 48.444 33.261 48.444 33.261L47.742 34.197H40.128ZM42.072 30.363V36.501H43.584V30.993C43.98 30.939 44.124 30.777 44.142 30.543L42.072 30.363ZM45.726 30.363V36.501H47.238V30.993C47.634 30.939 47.778 30.777 47.814 30.543L45.726 30.363ZM43.944 36.393V42.999H45.438V36.393H43.944ZM40.704 38.031V46.959H40.938C41.568 46.959 42.18 46.599 42.18 46.437V38.553H47.796V38.031H42.288L40.704 37.347V38.031ZM47.238 38.031V44.781C47.238 45.033 47.166 45.123 46.86 45.123C46.518 45.123 44.952 45.015 44.952 45.015V45.285C45.708 45.411 46.086 45.573 46.32 45.807C46.536 46.041 46.626 46.437 46.662 46.923C48.534 46.743 48.768 46.077 48.768 44.979V38.787C49.11 38.733 49.38 38.589 49.47 38.445L47.778 37.185L47.058 38.031H47.238ZM35.502 42.441C35.196 43.701 34.476 45.555 33.522 46.707L33.72 46.923C35.07 46.077 36.168 44.691 36.798 43.593C37.23 43.629 37.374 43.539 37.464 43.341L35.502 42.441ZM37.302 42.549L37.104 42.639C37.662 43.449 38.238 44.709 38.292 45.735C39.66 46.941 41.136 44.079 37.302 42.549ZM34.494 31.425V42.819H34.728C35.502 42.819 35.97 42.495 35.97 42.369V31.929H37.824V42.567H38.076C38.814 42.567 39.372 42.207 39.372 42.117V32.091C39.768 32.019 39.966 31.893 40.11 31.749L38.508 30.507L37.752 31.425H36.168L34.494 30.741V31.425ZM35.322 34.611V35.133H38.634V34.611H35.322ZM35.322 37.851V38.373H38.634V37.851H35.322ZM35.322 41.181V41.703H38.634V41.181H35.322ZM57.696 34.179V34.701H69.774V34.179H57.696ZM68.676 31.245V35.349H68.964C69.486 35.349 70.332 35.043 70.35 34.935V32.001C70.674 31.947 70.908 31.785 71.016 31.659L69.306 30.399L68.514 31.245H68.676ZM56.976 31.245V35.547H57.21C57.876 35.547 58.614 35.169 58.614 35.043V31.767H69.81V31.245H58.776L56.976 30.507V31.245ZM60.864 31.245V34.467H62.466V31.245H60.864ZM64.734 31.245V34.467H66.372V31.245H64.734ZM59.118 38.265V38.787H68.244V38.265H59.118ZM59.118 40.515V41.019H68.244V40.515H59.118ZM59.118 42.783V43.305H68.244V42.783H59.118ZM67.254 36.051V43.935H67.524C68.1 43.935 68.946 43.593 68.964 43.467V36.825C69.288 36.753 69.522 36.609 69.63 36.483L67.92 35.169L67.074 36.051H67.254ZM58.344 36.051V44.277H58.614C59.316 44.277 60.036 43.881 60.036 43.719V36.573H68.226V36.051H60.162L58.344 35.295V36.051ZM61.584 43.647C60.378 44.673 57.858 45.987 55.608 46.653L55.698 46.923C58.236 46.635 60.936 45.933 62.574 45.141C63.096 45.285 63.402 45.231 63.564 45.051L61.584 43.647ZM64.59 44.115L64.518 44.367C66.732 44.979 68.28 45.897 69.144 46.635C70.854 47.931 73.95 44.493 64.59 44.115ZM88.782 30.507L88.602 30.651C89.862 31.767 91.518 33.531 92.13 34.953C93.912 35.961 94.74 32.361 88.782 30.507ZM87.666 39.399H85.974C85.92 42.207 85.83 44.655 82.176 46.599L82.392 46.869C87.126 45.141 87.504 42.549 87.666 39.399ZM90.222 39.417H88.638V44.943C88.638 45.951 88.836 46.293 90.114 46.293H91.212C93.138 46.293 93.696 46.005 93.696 45.411C93.696 45.123 93.606 44.943 93.192 44.745L93.138 42.549H92.94C92.706 43.485 92.472 44.421 92.346 44.673C92.274 44.817 92.202 44.853 92.058 44.871C91.914 44.889 91.662 44.889 91.338 44.889H90.6C90.258 44.889 90.222 44.817 90.222 44.601V39.993C90.222 39.849 90.222 39.633 90.222 39.417ZM88.026 31.299L85.884 30.471C85.434 31.947 84.354 34.107 83.13 35.493L83.31 35.709C85.038 34.647 86.55 32.901 87.36 31.569C87.792 31.587 87.936 31.479 88.026 31.299ZM90.168 35.115H90.33V40.389H90.6C91.104 40.389 91.896 40.083 91.914 39.957V35.799C92.184 35.745 92.4 35.619 92.49 35.511L90.924 34.323L90.168 35.115ZM85.992 40.137V35.637H90.996V35.115H86.082L84.606 34.467L84.48 34.557V40.605H84.696C85.326 40.605 85.992 40.281 85.992 40.137ZM90.888 39.183H85.362V39.705H90.888V39.183ZM78.612 30.471L78.45 30.579C78.99 31.173 79.62 32.163 79.782 33.009C81.366 34.071 82.752 31.011 78.612 30.471ZM82.032 44.511H78.54V45.033H82.032V44.511ZM81.276 40.425H81.438V45.915H81.69C82.212 45.915 82.95 45.573 82.968 45.429V41.181C83.292 41.109 83.562 40.983 83.67 40.839L82.032 39.597L81.276 40.425ZM79.026 46.149V40.947H81.798V40.425H79.098L77.514 39.759V46.635H77.73C78.378 46.635 79.026 46.293 79.026 46.149ZM82.536 32.523L81.726 33.585H76.794L76.938 34.107H83.598C83.832 34.107 84.012 34.017 84.066 33.819C83.49 33.261 82.536 32.523 82.536 32.523ZM81.798 37.131L81.024 38.193H77.568L77.712 38.715H82.752C83.004 38.715 83.166 38.625 83.202 38.427C82.698 37.869 81.798 37.131 81.798 37.131ZM81.798 34.845L81.024 35.907H77.568L77.712 36.429H82.752C83.004 36.429 83.166 36.339 83.202 36.141C82.698 35.583 81.798 34.845 81.798 34.845ZM107.682 31.479V31.983H113.334V31.479H107.682ZM107.682 35.565V36.087H113.334V35.565H107.682ZM107.592 39.759V40.263H113.352V39.759H107.592ZM112.56 31.479V44.565C112.56 44.871 112.47 44.997 112.11 44.997C111.66 44.997 109.392 44.835 109.392 44.835V45.105C110.4 45.267 110.904 45.447 111.228 45.735C111.534 45.987 111.66 46.383 111.732 46.941C113.946 46.725 114.216 45.969 114.216 44.763V32.289C114.576 32.217 114.864 32.073 114.99 31.911L113.172 30.525L112.38 31.479H112.56ZM107.016 31.479V37.239C107.016 40.983 106.458 44.205 103.11 46.761L103.308 46.941C108.096 44.619 108.654 40.839 108.654 37.221V31.479H108.906L107.016 30.741V31.299V31.479ZM99.15 31.803V43.737H99.438C100.248 43.737 100.77 43.305 100.77 43.179V31.803H100.986L99.15 31.065V31.803ZM103.506 31.803V42.909H103.758C104.352 42.909 105.108 42.495 105.126 42.351V32.613C105.486 32.523 105.774 32.379 105.882 32.235L104.154 30.885L103.326 31.803H103.506ZM99.996 31.803V32.307H104.154V31.803H99.996ZM99.996 36.285V36.807H104.154V36.285H99.996ZM99.996 40.893V41.415H104.154V40.893H99.996Z" fill="white"/>
</svg>
